<svg width="247" height="60" viewBox="0 0 247 60" fill="none" xmlns="http://www.w3.org/2000/svg">
<g clip-path="url(#clip0_0_79)">
<mask id="mask0_0_79" style="mask-type:luminance" maskUnits="userSpaceOnUse" x="0" y="0" width="247" height="60">
<path d="M247 0.535156H0V59.1265H247V0.535156Z" fill="white"/>
</mask>
<g mask="url(#mask0_0_79)">
<path d="M6.74163 7.45801L14.891 28.4355H15.0078L23.1749 7.45801H29.3032V34.7296H24.5766V25.4428L25.0438 13.6239L24.9256 13.6042L16.5223 34.7296H13.3535L4.98951 13.6579L4.8727 13.6762L5.33993 25.4402V34.7269H0.613281V7.45801H6.74163Z" fill="white"/>
<path d="M64.4902 34.7298V7.45825H73.6705C75.283 7.39649 76.8916 7.65193 78.3981 8.20899C79.9046 8.76604 81.2773 9.613 82.4325 10.6981C83.5561 11.7921 84.4352 13.0961 85.0154 14.5297C85.5957 15.9634 85.8648 17.4963 85.8063 19.0339V23.1737C85.8672 24.7115 85.5991 26.2448 85.0187 27.6786C84.4383 29.1123 83.558 30.4159 82.4325 31.5082C81.2744 32.5883 79.9007 33.4307 78.3946 33.9844C76.8885 34.5382 75.2814 34.7918 73.6705 34.7298H64.4902ZM69.2142 11.1102V31.0766H73.5334C74.568 31.1273 75.6015 30.9555 76.5586 30.5735C77.5157 30.1916 78.3725 29.6093 79.0668 28.8687C80.455 27.2754 81.1744 25.2399 81.0838 23.162V18.9895C81.1719 16.9236 80.4538 14.9009 79.0709 13.3193C78.3766 12.5787 77.5198 11.9962 76.5627 11.6141C75.6056 11.2319 74.5722 11.0598 73.5374 11.1102H69.2142Z" fill="white"/>
<path d="M104.155 24.3898V34.7229H99.4297V7.45789H110.495C113.162 7.30678 115.789 8.14083 117.839 9.79003C118.717 10.5659 119.41 11.5164 119.868 12.5757C120.327 13.635 120.54 14.7777 120.495 15.9245C120.543 17.0736 120.331 18.2191 119.873 19.281C119.414 20.3428 118.72 21.2954 117.839 22.072C115.783 23.7103 113.159 24.5368 110.495 24.3846L104.155 24.3898ZM104.155 20.7379H110.495C111.215 20.7902 111.938 20.6973 112.618 20.4651C113.298 20.2329 113.92 19.8665 114.445 19.3894C115.339 18.4597 115.814 17.2271 115.767 15.9611C115.808 14.685 115.334 13.443 114.445 12.4963C113.927 12.0086 113.306 11.6328 112.626 11.3938C111.945 11.1547 111.219 11.0579 110.497 11.1098H104.155V20.7379Z" fill="white"/>
<path d="M156 23.5473C156.052 25.0677 155.79 26.5829 155.231 28.0055C154.671 29.4281 153.825 30.73 152.74 31.836C151.652 32.9263 150.336 33.7829 148.88 34.3495C147.423 34.9162 145.859 35.1802 144.29 35.1243C142.746 35.1787 141.209 34.9133 139.781 34.346C138.353 33.7787 137.068 32.9227 136.014 31.836C133.869 29.5798 132.727 26.6044 132.833 23.5473V18.6397C132.731 15.5866 133.874 12.6162 136.017 10.3641C137.067 9.27641 138.348 8.419 139.772 7.85005C141.197 7.2811 142.732 7.01393 144.273 7.06666C145.845 7.01169 147.411 7.27701 148.869 7.84525C150.327 8.41349 151.644 9.27183 152.734 10.3641C153.819 11.4678 154.667 12.7676 155.228 14.1884C155.788 15.6093 156.052 17.1231 156.002 18.6424L156 23.5473ZM151.293 18.6044C151.378 16.5792 150.706 14.5917 149.398 13.0036C148.776 12.2834 147.99 11.7109 147.101 11.3308C146.212 10.9506 145.244 10.7728 144.272 10.8114C143.33 10.7751 142.393 10.955 141.538 11.3361C140.682 11.7173 139.933 12.2888 139.352 13.0036C138.096 14.6136 137.457 16.5924 137.543 18.6044V23.5499C137.454 25.5765 138.093 27.5707 139.352 29.1965C139.935 29.915 140.686 30.4894 141.545 30.8723C142.404 31.2551 143.345 31.4353 144.291 31.3979C145.263 31.4392 146.232 31.2627 147.122 30.8823C148.011 30.5019 148.797 29.928 149.417 29.2057C150.719 27.594 151.384 25.5889 151.293 23.5486V18.6044Z" fill="white"/>
<path d="M174.877 7.45801H170.15V34.7296H174.877V7.45801Z" fill="white"/>
<path d="M212.212 34.7296H207.505L194.942 14.822L194.824 14.8599V34.7296H190.1V7.45801H194.824L207.389 27.3499L207.505 27.312V7.45801H212.213L212.212 34.7296Z" fill="white"/>
<path d="M246.532 11.1099H237.975V34.7296H233.248V11.1099H224.691V7.45801H246.532V11.1099Z" fill="white"/>
<path d="M44.542 9.05254V14.1027C46.0724 13.5983 47.7324 13.5914 49.2673 14.0831V9.08785C50.1804 8.59286 50.8982 7.82119 51.3089 6.89282C51.7196 5.96445 51.8003 4.93141 51.5384 3.95432C51.2765 2.97723 50.6867 2.11084 49.8607 1.48988C49.0347 0.868919 48.0188 0.528177 46.971 0.520636C45.9231 0.513094 44.9021 0.839177 44.0665 1.44818C43.231 2.05718 42.6278 2.91498 42.3508 3.88819C42.0737 4.86141 42.1384 5.8955 42.5347 6.82967C42.9309 7.76385 43.6366 8.54446 44.542 9.05254ZM46.9338 3.36017C47.2928 3.36017 47.6438 3.46264 47.9423 3.65462C48.2408 3.84661 48.4736 4.1195 48.6112 4.43882C48.7487 4.75814 48.7849 5.10956 48.7152 5.44868C48.6454 5.7878 48.4729 6.09941 48.2193 6.34414C47.9658 6.58887 47.6426 6.75573 47.2906 6.82365C46.9386 6.89157 46.5736 6.8575 46.2417 6.72574C45.9098 6.59398 45.6259 6.37044 45.4259 6.08337C45.2259 5.7963 45.1187 5.45858 45.1179 5.11287C45.1179 4.64907 45.3092 4.20426 45.6498 3.8763C45.9903 3.54834 46.4522 3.36409 46.9338 3.36409" fill="white"/>
<path d="M46.9335 16.165C47.8737 16.165 48.7928 16.4335 49.5746 16.9366C50.3563 17.4396 50.9656 18.1546 51.3255 18.9911C51.6853 19.8276 51.7794 20.7481 51.596 21.6361C51.4125 22.5241 50.9598 23.3399 50.295 23.9801C49.6301 24.6203 48.7831 25.0563 47.8609 25.233C46.9388 25.4096 45.9829 25.319 45.1143 24.9725C44.2457 24.626 43.5032 24.0392 42.9809 23.2864C42.4585 22.5335 42.1797 21.6484 42.1797 20.743C42.1797 19.5288 42.6805 18.3644 43.572 17.5059C44.4636 16.6474 45.6727 16.165 46.9335 16.165Z" fill="white"/>
<path d="M44.542 32.4242V27.374C46.0724 27.8784 47.7324 27.8853 49.2673 27.3936V32.3902C50.1804 32.8851 50.8982 33.6568 51.3089 34.5852C51.7196 35.5136 51.8003 36.5466 51.5384 37.5237C51.2765 38.5008 50.6867 39.3672 49.8607 39.9881C49.0347 40.6091 48.0188 40.9498 46.971 40.9574C45.9231 40.9649 44.9021 40.6388 44.0665 40.0298C43.231 39.4208 42.6278 38.563 42.3508 37.5898C42.0737 36.6166 42.1384 35.5825 42.5347 34.6483C42.9309 33.7142 43.6366 32.9322 44.542 32.4242ZM46.9338 38.1178C47.293 38.1178 47.6441 38.0153 47.9427 37.8231C48.2414 37.631 48.4741 37.3578 48.6116 37.0383C48.749 36.7187 48.785 36.3671 48.7149 36.0279C48.6448 35.6887 48.4719 35.3771 48.2179 35.1325C47.9639 34.8879 47.6404 34.7214 47.2881 34.6539C46.9358 34.5864 46.5707 34.621 46.2389 34.7534C45.9071 34.8858 45.6235 35.1099 45.4239 35.3975C45.2244 35.6851 45.1179 36.0232 45.1179 36.3691C45.1179 36.8329 45.3092 37.2777 45.6498 37.6056C45.9903 37.9336 46.4522 38.1178 46.9338 38.1178Z" fill="white"/>
</g>
<g clip-path="url(#clip1_0_79)">
<path d="M28.5234 51.6094H31.7467C32.4336 51.6094 32.9954 51.7783 33.4292 52.1188C33.9521 52.5046 34.2246 53.0519 34.2469 53.7655C34.233 54.8146 33.7018 55.5258 32.6533 55.904L34.5611 59.3287H33.0788L31.3712 56.0301H29.7721V59.3287H28.5234V51.6094ZM29.7721 54.9937H31.666C32.136 54.9861 32.4865 54.86 32.7201 54.6104C32.9509 54.3809 33.0649 54.0959 33.0649 53.7605C33.0566 53.357 32.9203 53.0645 32.6505 52.8854C32.4392 52.7265 32.1333 52.6458 31.7328 52.6458H29.7721V54.9937Z" fill="white"/>
<path d="M37.707 51.6094H42.9744V52.7114H38.9557V54.9205H42.3876V55.957H38.9557V58.2292H42.9744V59.3312H37.707V51.6094Z" fill="white"/>
<path d="M50.4713 57.6038H47.3426L46.7086 59.3312H45.3848L48.3855 51.6094H49.4312L52.4292 59.3287H51.111L50.4713 57.6012V57.6038ZM50.1154 56.5673L48.9223 53.1906H48.9L47.707 56.5673H50.1154Z" fill="white"/>
<path d="M55.4277 51.6094H56.6764V58.2292H60.6951V59.3312H55.4277V51.6094Z" fill="white"/>
<path d="M68.7266 51.6094H73.9939V52.7114H69.9753V54.9205H73.4071V55.957H69.9753V58.2292H73.9939V59.3312H68.7266V51.6094Z" fill="white"/>
<path d="M77.3681 57.4606C78.0245 57.9675 78.8059 58.2222 79.7126 58.2297C80.7833 58.2146 81.3284 57.8565 81.3423 57.1529C81.3506 56.5779 80.9918 56.2299 80.266 56.1139C79.935 56.071 79.5707 56.0231 79.173 55.9702C78.4639 55.8617 77.9243 55.6146 77.5544 55.2338C77.1734 54.8429 76.9843 54.3638 76.9843 53.8039C76.9843 53.1281 77.2235 52.5859 77.7018 52.1723C78.1663 51.7638 78.8226 51.5544 79.6736 51.5469C80.6971 51.567 81.5898 51.8344 82.3462 52.3438L81.651 53.3046C81.0336 52.9238 80.3522 52.7246 79.6069 52.7094C79.2231 52.7094 78.9005 52.8002 78.6446 52.9793C78.3776 53.1659 78.2386 53.4458 78.2302 53.8165C78.2302 54.0384 78.322 54.2402 78.5084 54.4218C78.6947 54.6059 78.9895 54.7319 79.3955 54.8026C79.6208 54.8379 79.9323 54.8782 80.3244 54.9236C81.0975 55.022 81.6676 55.2817 82.0375 55.7028C82.4046 56.1164 82.5854 56.5956 82.5854 57.1453C82.5437 58.6231 81.5787 59.3721 79.6931 59.3923C78.4722 59.3923 77.4237 59.0417 76.5449 58.3382L77.3653 57.458L77.3681 57.4606Z" fill="white"/>
<path d="M87.4173 52.6484H85.1562V51.6094H90.927V52.6458H88.666V59.3287H87.4173V52.6484Z" fill="white"/>
<path d="M97.2233 57.6038H94.0946L93.4605 59.3312H92.1367L95.1347 51.6094H96.1804L99.1784 59.3287H97.8602L97.2205 57.6012L97.2233 57.6038ZM96.8673 56.5673L95.6742 53.1906H95.652L94.4589 56.5673H96.8673Z" fill="white"/>
<path d="M102.695 52.6484H100.434V51.6094H106.204V52.6458H103.943V59.3287H102.695V52.6484Z" fill="white"/>
<path d="M109.16 51.6094H114.427V52.7114H110.409V54.9205H113.841V55.957H110.409V58.2292H114.427V59.3312H109.16V51.6094Z" fill="white"/>
<path d="M122.459 51.6094H125.346C126.461 51.6169 127.298 52.0507 127.857 52.9132C128.057 53.2032 128.182 53.5058 128.235 53.8235C128.277 54.1413 128.296 54.691 128.296 55.4703C128.296 56.3 128.263 56.88 128.199 57.2078C128.169 57.3743 128.124 57.5231 128.063 57.6517C127.999 57.7778 127.921 57.9114 127.832 58.0501C127.59 58.4133 127.254 58.7134 126.825 58.9504C126.4 59.2051 125.877 59.3312 125.26 59.3312H122.459V51.6094ZM123.705 58.2292H125.201C125.905 58.2292 126.414 58.0047 126.731 57.5558C126.87 57.3894 126.959 57.1801 126.998 56.9254C127.031 56.6732 127.048 56.2041 127.048 55.5132C127.048 54.8222 127.031 54.3607 126.998 54.0707C126.953 53.7807 126.845 53.5461 126.675 53.3646C126.327 52.9157 125.838 52.6988 125.204 52.7114H123.708V58.2292H123.705Z" fill="white"/>
<path d="M131.879 51.6094H137.146V52.7114H133.128V54.9205H136.559V55.957H133.128V58.2292H137.146V59.3312H131.879V51.6094Z" fill="white"/>
<path d="M139.562 51.6094H140.884L142.752 57.4903H142.775L144.649 51.6094H145.97L143.247 59.3287H142.277L139.562 51.6094Z" fill="white"/>
<path d="M148.961 51.6094H154.228V52.7114H150.21V54.9205H153.641V55.957H150.21V58.2292H154.228V59.3312H148.961V51.6094Z" fill="white"/>
<path d="M157.5 51.6094H158.749V58.2292H162.767V59.3312H157.5V51.6094Z" fill="white"/>
<path d="M165.76 55.4707C165.76 54.5729 165.788 53.9702 165.843 53.6676C165.904 53.3624 165.996 53.1178 166.121 52.9312C166.322 52.5756 166.641 52.2604 167.084 51.983C167.517 51.7005 168.057 51.5568 168.705 51.5518C169.361 51.5593 169.906 51.7031 170.346 51.9855C170.78 52.2654 171.091 52.5832 171.283 52.9388C171.422 53.1254 171.519 53.37 171.572 53.6751C171.622 53.9778 171.644 54.578 171.644 55.4757C171.644 56.3735 171.619 56.956 171.572 57.2662C171.519 57.5764 171.422 57.8261 171.283 58.0127C171.091 58.3683 170.777 58.6835 170.346 58.9558C169.909 59.2383 169.361 59.3871 168.708 59.3997C168.06 59.3846 167.517 59.2383 167.086 58.9558C166.644 58.6835 166.324 58.3708 166.124 58.0127C166.063 57.8967 166.01 57.7857 165.96 57.6798C165.916 57.5714 165.877 57.4327 165.846 57.2662C165.79 56.956 165.763 56.3584 165.763 55.4757L165.76 55.4707ZM167.008 55.4707C167.008 56.2323 167.039 56.7467 167.1 57.014C167.153 57.2839 167.262 57.5008 167.423 57.6672C167.556 57.8261 167.729 57.9547 167.943 58.0556C168.154 58.1716 168.407 58.2296 168.702 58.2296C168.997 58.2296 169.258 58.1716 169.478 58.0556C169.687 57.9572 169.851 57.8286 169.976 57.6672C170.137 57.5008 170.248 57.2839 170.31 57.014C170.365 56.7442 170.396 56.2297 170.396 55.4707C170.396 54.7116 170.368 54.1921 170.31 53.9172C170.248 53.655 170.137 53.4406 169.976 53.2742C169.851 53.1153 169.684 52.9816 169.478 52.8757C169.258 52.7723 169 52.7194 168.702 52.7118C168.407 52.7194 168.154 52.7748 167.943 52.8757C167.729 52.9816 167.554 53.1153 167.423 53.2742C167.262 53.4406 167.153 53.655 167.1 53.9172C167.039 54.1921 167.008 54.7116 167.008 55.4707Z" fill="white"/>
<path d="M175.225 51.6094H178.214C178.54 51.6094 178.851 51.6371 179.154 51.6951C179.457 51.7683 179.761 51.9221 180.072 52.1516C180.331 52.3256 180.542 52.5727 180.706 52.893C180.876 53.2032 180.959 53.5714 180.959 53.995C180.959 54.5675 180.745 55.087 180.314 55.556C179.872 56.0503 179.227 56.305 178.378 56.3176H176.476V59.3312H175.227V51.6094H175.225ZM176.473 55.2156H178.326C178.79 55.208 179.14 55.0744 179.374 54.8121C179.596 54.5574 179.708 54.2724 179.708 53.9597C179.708 53.7 179.663 53.4831 179.571 53.3066C179.477 53.1477 179.343 53.0216 179.174 52.9283C178.918 52.777 178.618 52.7038 178.278 52.7089H176.471V55.2156H176.473Z" fill="white"/>
<path d="M184.201 51.6094H185.378L187.741 56.6404L190.061 51.6094H191.243V59.3287H189.994V54.5145H189.966L188.239 58.2216H187.199L185.472 54.5145H185.45V59.3287H184.201V51.6094Z" fill="white"/>
<path d="M195.154 51.6094H200.422V52.7114H196.403V54.9205H199.835V55.957H196.403V58.2292H200.422V59.3312H195.154V51.6094Z" fill="white"/>
<path d="M203.695 51.6094H204.872L208.607 57.0969H208.629V51.6094H209.878V59.3287H208.696L204.966 53.8412H204.944V59.3287H203.695V51.6094Z" fill="white"/>
<path d="M215.165 52.6484H212.904V51.6094H218.675V52.6458H216.414V59.3287H215.165V52.6484Z" fill="white"/>
</g>
</g>
<defs>
<clipPath id="clip0_0_79">
<rect width="247" height="58.5913" fill="white" transform="translate(0 0.535156)"/>
</clipPath>
<clipPath id="clip1_0_79">
<rect width="190.153" height="7.84793" fill="white" transform="translate(28.5234 51.5469)"/>
</clipPath>
</defs>
</svg>
