<svg width="49" height="49" viewBox="0 0 49 49" fill="none" xmlns="http://www.w3.org/2000/svg">
<path d="M20.732 48.542C20.341 48.458 19.949 48.381 19.56 48.288C17.5655 47.8309 15.7682 46.7512 14.428 45.205C13.914 45.242 13.455 45.305 12.996 45.305C9.05267 45.313 5.109 45.313 1.165 45.305C0.235 45.305 0 45.072 0 44.142C0 41.1253 0 38.1083 0 35.091C0 34.23 0.251 33.979 1.112 33.979H13.45C14.31 33.979 14.608 34.235 14.55 35.09C14.5014 35.3303 14.549 35.5801 14.6825 35.7857C14.816 35.9914 15.0247 36.1365 15.264 36.19C16.384 36.632 17.47 37.164 18.611 37.678V33.999C18.611 33.51 18.611 33.021 18.611 32.532C18.619 31.841 18.903 31.555 19.601 31.553C21.401 31.553 23.201 31.553 25.082 31.553V30.999C25.082 28.8423 25.082 26.685 25.082 24.527C25.082 23.727 25.348 23.465 26.14 23.464C27.924 23.464 29.708 23.464 31.553 23.464V22.891C31.553 19.9577 31.553 17.0243 31.553 14.091C31.553 13.191 31.793 12.945 32.68 12.944H38.025V1.129C38.025 0.239 38.269 0 39.17 0H44.985C45.873 0 46.114 0.245 46.114 1.145C46.114 15.0843 46.114 29.023 46.114 42.961V43.687H48.541V45.305H32.316C32.3458 45.7223 32.3424 46.1413 32.306 46.558C32.2133 47.0308 31.989 47.4679 31.6589 47.8189C31.3288 48.1699 30.9063 48.4205 30.44 48.542H20.732ZM44.463 1.657H39.663V43.663H44.463V1.657ZM33.206 43.646H38V14.585H33.206V43.646ZM12.922 35.632H1.659V43.66H12.922V35.632ZM26.722 25.101C26.712 25.21 26.7 25.276 26.7 25.341C26.7 30.4777 26.7 35.6143 26.7 40.751C26.6842 40.8823 26.7112 41.0152 26.777 41.13C27.0982 41.4572 27.3252 41.8651 27.4342 42.3105C27.5431 42.7559 27.5299 43.2224 27.396 43.661H31.523V25.101H26.722ZM14.564 37.66C14.564 39.302 14.564 40.884 14.569 42.466C14.5792 42.5983 14.624 42.7256 14.699 42.835C15.4266 44.1083 16.4856 45.1607 17.7633 45.8805C19.0411 46.6003 20.4899 46.9605 21.956 46.923C24.23 46.9263 26.504 46.9263 28.778 46.923C29.178 46.923 29.588 46.939 29.991 46.913C30.0807 46.917 30.1702 46.9033 30.2546 46.8727C30.3389 46.842 30.4164 46.795 30.4826 46.7343C30.5487 46.6736 30.6022 46.6005 30.6401 46.5191C30.6779 46.4377 30.6993 46.3497 30.703 46.26C30.663 45.9449 30.5203 45.6518 30.297 45.426C30.185 45.301 29.89 45.311 29.676 45.31C26.9807 45.3033 24.2857 45.3033 21.591 45.31H21.06V43.687H21.577C22.689 43.687 23.801 43.687 24.913 43.687C25.513 43.687 25.875 43.382 25.885 42.895C25.896 42.395 25.521 42.075 24.894 42.072C24.035 42.072 23.174 42.041 22.317 42.081C22.0588 42.098 21.8001 42.0566 21.5602 41.9598C21.3202 41.863 21.1051 41.7134 20.931 41.522C19.1072 39.7971 16.9366 38.4798 14.564 37.66ZM20.226 33.196C20.226 34.881 20.241 36.528 20.216 38.176C20.1909 38.3717 20.2222 38.5705 20.3064 38.7489C20.3906 38.9273 20.524 39.0779 20.691 39.183C21.1223 39.5058 21.5355 39.852 21.929 40.22C22.029 40.305 22.143 40.435 22.253 40.437C23.188 40.454 24.124 40.447 25.053 40.447V33.194L20.226 33.196Z" fill="#A51B23"/>
<path d="M20.2258 19.5561C20.2258 20.9561 20.2148 22.3561 20.2328 23.7561C20.247 23.9657 20.2023 24.1752 20.1037 24.3608C20.0051 24.5463 19.8565 24.7006 19.6748 24.8061C18.1838 25.7861 16.7088 26.7911 15.2098 27.7601C14.9433 27.927 14.6372 28.0202 14.3228 28.0301C12.8561 28.0574 11.3895 28.0574 9.92282 28.0301C9.62439 28.021 9.33377 27.9327 9.08082 27.7741C7.56982 26.7941 6.08082 25.7801 4.57482 24.7901C4.40112 24.688 4.25897 24.54 4.16404 24.3623C4.0691 24.1847 4.02508 23.9842 4.03682 23.7831C4.04815 20.9691 4.04815 18.1551 4.03682 15.3411C4.01893 15.1235 4.06772 14.9056 4.17669 14.7165C4.28565 14.5273 4.44963 14.3758 4.64682 14.2821C6.94682 13.0154 9.24115 11.7398 11.5298 10.4551C11.7136 10.3381 11.9272 10.2767 12.145 10.2781C12.3628 10.2795 12.5756 10.3438 12.7578 10.4631C15.0325 11.7411 17.3125 13.0078 19.5978 14.2631C19.8038 14.3587 19.9752 14.5158 20.0884 14.7128C20.2015 14.9098 20.2509 15.1369 20.2298 15.3631C20.2108 16.7631 20.2228 18.1631 20.2228 19.5631M5.66282 16.4681C5.66282 18.8141 5.65682 21.0541 5.67582 23.2931C5.69137 23.3849 5.72546 23.4726 5.776 23.5508C5.82655 23.6291 5.89249 23.6962 5.96982 23.7481C7.19182 24.5828 8.42315 25.4041 9.66382 26.2121C9.85828 26.3358 10.0825 26.4049 10.3128 26.4121C11.5241 26.4314 12.7365 26.4314 13.9498 26.4121C14.1958 26.4026 14.435 26.3281 14.6428 26.1961C15.8568 25.4081 17.0508 24.5901 18.2638 23.7961C18.3793 23.7342 18.474 23.6399 18.5364 23.5247C18.5988 23.4095 18.6261 23.2786 18.6148 23.1481C18.5988 21.5321 18.6068 19.9151 18.6068 18.2991V16.4851C18.3808 16.6061 18.2198 16.6851 18.0618 16.7731C16.2978 17.7531 14.5288 18.7261 12.7728 19.7211C12.5842 19.8464 12.3628 19.9133 12.1363 19.9133C11.9099 19.9133 11.6884 19.8464 11.4998 19.7211C10.6758 19.2331 9.82882 18.7831 8.98982 18.3211L5.66282 16.4681ZM17.7528 15.0941C15.8798 14.0531 14.1078 13.0591 12.3208 12.0941C12.2293 12.0718 12.1342 12.0681 12.0412 12.0834C11.9483 12.0987 11.8594 12.1326 11.7798 12.1831C10.1708 13.0621 8.57182 13.9571 6.96982 14.8491C6.84682 14.9171 6.73382 15.0051 6.56982 15.1171C8.40782 16.1401 10.1828 17.1301 11.9638 18.1091C12.0216 18.1352 12.0844 18.1487 12.1478 18.1487C12.2113 18.1487 12.274 18.1352 12.3318 18.1091C14.1128 17.1311 15.8868 16.1411 17.7578 15.1011" fill="#A51B23"/>
</svg>
