<svg width="248" height="1100" viewBox="0 0 248 1100" fill="none" xmlns="http://www.w3.org/2000/svg">
<g filter="url(#filter0_b_8_175)">
<path d="M1.28167e-07 975.513C-0.000586194 953.784 5.67998 932.434 16.4759 913.589C27.2719 894.744 42.8064 879.063 61.5322 868.107V730.638C101.509 744.365 144.879 744.547 184.969 731.154V867.185C204.106 878.032 220.026 893.777 231.1 912.811C242.175 931.845 248.007 953.484 248 975.516C248 1044.27 192.489 1100 124.007 1100C55.5245 1100 1.28167e-07 1044.27 1.28167e-07 975.513ZM76.595 975.513C76.6129 984.906 79.4087 994.082 84.6292 1001.88C89.8497 1009.68 97.2606 1015.76 105.925 1019.34C114.59 1022.92 124.12 1023.85 133.311 1022.01C142.502 1020.16 150.941 1015.63 157.563 1008.98C164.184 1002.34 168.691 993.871 170.513 984.657C172.335 975.444 171.39 965.896 167.799 957.22C164.208 948.544 158.131 941.129 150.336 935.913C142.541 930.696 133.379 927.912 124.005 927.913C117.773 927.919 111.603 929.154 105.848 931.55C100.093 933.945 94.8645 937.453 90.462 941.873C86.0595 946.293 82.569 951.539 80.1897 957.311C77.8103 963.083 76.5889 969.268 76.595 975.513ZM1.28167e-07 550C1.28167e-07 481.245 55.5115 425.513 123.995 425.513C192.478 425.513 247.989 481.245 247.989 550C247.989 618.755 192.478 674.498 123.995 674.498C55.5115 674.498 1.28167e-07 618.755 1.28167e-07 550ZM61.5322 231.896C42.806 220.94 27.2713 205.258 16.4754 186.413C5.6794 167.568 -0.000985204 146.217 1.28167e-07 124.488C1.28167e-07 55.7323 55.5222 0 124.007 0C192.491 0 248 55.7323 248 124.488C248.007 146.52 242.175 168.159 231.1 187.193C220.026 206.227 204.106 221.972 184.969 232.819V368.846C144.879 355.454 101.509 355.635 61.5322 369.363V231.896ZM76.595 124.49C76.6129 133.883 79.4087 143.059 84.6292 150.86C89.8497 158.661 97.2606 164.737 105.925 168.319C114.59 171.901 124.12 172.828 133.311 170.985C142.502 169.141 150.941 164.609 157.563 157.961C164.184 151.313 168.691 142.848 170.513 133.634C172.335 124.421 171.39 114.873 167.799 106.197C164.208 97.5206 158.131 90.1059 150.336 84.8896C142.541 79.6733 133.379 76.8893 124.005 76.8894C117.773 76.8952 111.604 78.131 105.848 80.5262C100.093 82.9214 94.865 86.429 90.4626 90.849C86.0601 95.2689 82.5695 100.514 80.1901 106.286C77.8107 112.058 76.5891 118.243 76.595 124.488V124.49Z" fill="white" fill-opacity="0.12"/>
</g>
<defs>
<filter id="filter0_b_8_175" x="-51.5" y="-51.5" width="351" height="1203" filterUnits="userSpaceOnUse" color-interpolation-filters="sRGB">
<feFlood flood-opacity="0" result="BackgroundImageFix"/>
<feGaussianBlur in="BackgroundImageFix" stdDeviation="25.75"/>
<feComposite in2="SourceAlpha" operator="in" result="effect1_backgroundBlur_8_175"/>
<feBlend mode="normal" in="SourceGraphic" in2="effect1_backgroundBlur_8_175" result="shape"/>
</filter>
</defs>
</svg>
