<svg width="182" height="45" viewBox="0 0 182 45" fill="none" xmlns="http://www.w3.org/2000/svg">
<mask id="mask0_0_136" style="mask-type:luminance" maskUnits="userSpaceOnUse" x="0" y="0" width="182" height="45">
<path d="M181.854 0H0V44.795H181.854V0Z" fill="white"/>
</mask>
<g mask="url(#mask0_0_136)">
<path d="M4.96317 5.293L10.9632 21.331H11.0492L17.0622 5.293H21.5742V26.143H18.0942V19.043L18.4382 10.007L18.3512 9.992L12.1642 26.143H9.83117L3.67317 10.033L3.58717 10.047L3.93117 19.041V26.141H0.451172V5.293H4.96317Z" fill="#A51B23"/>
<path d="M47.4805 26.143V5.293H54.2395C55.4266 5.24578 56.611 5.44108 57.7201 5.86696C58.8293 6.29284 59.84 6.94038 60.6905 7.77C61.5177 8.60636 62.1649 9.60331 62.5921 10.6994C63.0194 11.7954 63.2175 12.9674 63.1745 14.143V17.308C63.2192 18.4836 63.0219 19.6559 62.5945 20.7521C62.1672 21.8482 61.5191 22.8448 60.6905 23.68C59.8378 24.5057 58.8264 25.1498 57.7176 25.5731C56.6087 25.9965 55.4255 26.1904 54.2395 26.143H47.4805ZM50.9585 8.085V23.35H54.1385C54.9003 23.3888 55.6611 23.2574 56.3658 22.9654C57.0705 22.6734 57.7013 22.2282 58.2125 21.662C59.2345 20.4439 59.7642 18.8877 59.6975 17.299V14.109C59.7623 12.5296 59.2336 10.9831 58.2155 9.774C57.7043 9.20775 57.0735 8.76239 56.3689 8.47025C55.6642 8.17811 54.9033 8.04651 54.1415 8.085H50.9585Z" fill="#A51B23"/>
<path d="M76.6841 18.238V26.138H73.2051V5.293H81.3521C83.3157 5.17747 85.2494 5.81513 86.7591 7.076C87.4056 7.66914 87.9154 8.39586 88.253 9.20573C88.5906 10.0156 88.7479 10.8892 88.7141 11.766C88.7501 12.6445 88.5939 13.5203 88.2562 14.3321C87.9185 15.144 87.4075 15.8722 86.7591 16.466C85.2455 17.7185 83.3132 18.3504 81.3521 18.234L76.6841 18.238ZM76.6841 15.446H81.3521C81.8819 15.486 82.4141 15.4149 82.9149 15.2374C83.4156 15.0599 83.8738 14.7798 84.2601 14.415C84.918 13.7042 85.2678 12.7619 85.2331 11.794C85.2637 10.8184 84.9149 9.86884 84.2601 9.145C83.8785 8.7722 83.4219 8.48487 82.9207 8.30211C82.4195 8.11935 81.8851 8.04534 81.3531 8.085H76.6841V15.446Z" fill="#A51B23"/>
<path d="M114.855 17.594C114.893 18.7564 114.7 19.9148 114.288 21.0024C113.877 22.0901 113.253 23.0854 112.455 23.931C111.653 24.7646 110.685 25.4194 109.612 25.8527C108.54 26.2859 107.389 26.4877 106.233 26.445C105.097 26.4866 103.964 26.2837 102.913 25.8499C101.862 25.4162 100.916 24.7618 100.14 23.931C98.5609 22.206 97.7202 19.9313 97.7979 17.594V13.842C97.7227 11.5078 98.5641 9.23682 100.142 7.515C100.915 6.68343 101.858 6.02791 102.907 5.59293C103.956 5.15795 105.086 4.95369 106.221 4.994C107.378 4.95198 108.531 5.15482 109.605 5.58926C110.678 6.0237 111.648 6.67993 112.45 7.515C113.249 8.35881 113.873 9.35255 114.286 10.4388C114.699 11.5251 114.893 12.6824 114.856 13.844L114.855 17.594ZM111.389 13.815C111.452 12.2667 110.957 10.7472 109.994 9.533C109.536 8.98236 108.957 8.54471 108.303 8.25404C107.648 7.96337 106.935 7.8275 106.22 7.857C105.527 7.82925 104.837 7.96675 104.207 8.25816C103.577 8.54957 103.026 8.98653 102.598 9.533C101.673 10.7639 101.202 12.2767 101.266 13.815V17.596C101.2 19.1454 101.671 20.67 102.598 21.913C103.027 22.4623 103.58 22.9015 104.212 23.1942C104.845 23.4869 105.538 23.6246 106.234 23.596C106.95 23.6276 107.663 23.4926 108.318 23.2018C108.973 22.911 109.551 22.4722 110.008 21.92C110.967 20.6878 111.456 19.1549 111.389 17.595V13.815Z" fill="#A51B23"/>
<path d="M128.753 5.293H125.273V26.143H128.753V5.293Z" fill="#A51B23"/>
<path d="M156.241 26.143H152.776L143.526 10.923L143.439 10.952V26.143H139.961V5.293H143.439L152.69 20.501L152.776 20.472V5.293H156.242L156.241 26.143Z" fill="#A51B23"/>
<path d="M181.51 8.085H175.21V26.143H171.73V8.085H165.43V5.293H181.51V8.085Z" fill="#A51B23"/>
<path d="M32.7925 6.512V10.373C33.9193 9.98739 35.1414 9.98212 36.2715 10.358V6.539C36.9438 6.16057 37.4722 5.5706 37.7746 4.86083C38.077 4.15106 38.1364 3.36126 37.9436 2.61424C37.7508 1.86723 37.3166 1.20485 36.7084 0.730103C36.1003 0.255357 35.3523 -0.00515155 34.5808 -0.0109171C33.8094 -0.0166827 33.0576 0.232618 32.4424 0.698221C31.8273 1.16382 31.3832 1.81964 31.1792 2.56369C30.9753 3.30774 31.0228 4.09834 31.3146 4.81255C31.6064 5.52676 32.1259 6.12356 32.7925 6.512ZM34.5535 2.16C34.8178 2.16 35.0762 2.23834 35.296 2.38512C35.5158 2.5319 35.6871 2.74053 35.7884 2.98466C35.8897 3.22879 35.9164 3.49746 35.865 3.75673C35.8137 4.016 35.6866 4.25424 35.4999 4.44134C35.3133 4.62844 35.0753 4.75602 34.8162 4.80794C34.557 4.85987 34.2883 4.83382 34.0439 4.73309C33.7996 4.63235 33.5905 4.46145 33.4433 4.24198C33.296 4.0225 33.2171 3.7643 33.2165 3.5C33.2165 3.1454 33.3574 2.80533 33.6081 2.5546C33.8588 2.30386 34.1989 2.163 34.5535 2.163" fill="#A51B23"/>
<path d="M34.5547 11.95C35.2469 11.95 35.9236 12.1553 36.4992 12.5399C37.0748 12.9244 37.5234 13.4711 37.7883 14.1106C38.0532 14.7501 38.1225 15.4539 37.9874 16.1328C37.8524 16.8117 37.519 17.4354 37.0296 17.9249C36.5401 18.4144 35.9164 18.7477 35.2375 18.8827C34.5586 19.0178 33.8548 18.9485 33.2153 18.6836C32.5758 18.4187 32.0291 17.9701 31.6445 17.3945C31.26 16.8189 31.0547 16.1422 31.0547 15.45C31.0547 14.5217 31.4234 13.6315 32.0798 12.9751C32.7362 12.3187 33.6264 11.95 34.5547 11.95Z" fill="#A51B23"/>
<path d="M32.7925 24.38V20.519C33.9193 20.9046 35.1414 20.9099 36.2715 20.534V24.354C36.9438 24.7324 37.4722 25.3224 37.7746 26.0322C38.077 26.7419 38.1364 27.5317 37.9436 28.2788C37.7508 29.0258 37.3166 29.6882 36.7084 30.1629C36.1003 30.6376 35.3523 30.8982 34.5808 30.9039C33.8094 30.9097 33.0576 30.6604 32.4424 30.1948C31.8273 29.7292 31.3832 29.0734 31.1792 28.3293C30.9753 27.5853 31.0228 26.7947 31.3146 26.0805C31.6064 25.3662 32.1259 24.7684 32.7925 24.38ZM34.5535 28.733C34.8179 28.733 35.0764 28.6546 35.2963 28.5077C35.5162 28.3608 35.6875 28.152 35.7887 27.9076C35.8899 27.6633 35.9164 27.3945 35.8648 27.1352C35.8132 26.8758 35.6859 26.6376 35.4989 26.4506C35.3119 26.2636 35.0737 26.1363 34.8143 26.0847C34.555 26.0331 34.2861 26.0596 34.0418 26.1608C33.7975 26.262 33.5887 26.4333 33.4418 26.6532C33.2949 26.8731 33.2165 27.1316 33.2165 27.396C33.2165 27.7506 33.3574 28.0907 33.6081 28.3414C33.8588 28.5921 34.1989 28.733 34.5535 28.733Z" fill="#A51B23"/>
</g>
<g clip-path="url(#clip0_0_136)">
<path d="M21 39.0482H23.3731C23.8789 39.0482 24.2925 39.1774 24.6119 39.4377C24.9968 39.7326 25.1975 40.151 25.2139 40.6967C25.2036 41.4987 24.8126 42.0424 24.0406 42.3316L25.4453 44.9499H24.3539L23.0967 42.428H21.9194V44.9499H21V39.0482ZM21.9194 41.6356H23.3137C23.6598 41.6298 23.9178 41.5334 24.0898 41.3425C24.2597 41.1671 24.3437 40.9492 24.3437 40.6928C24.3375 40.3843 24.2372 40.1607 24.0386 40.0238C23.883 39.9023 23.6577 39.8406 23.3629 39.8406H21.9194V41.6356Z" fill="#A51B23"/>
<path d="M27.7617 39.0482H31.6398V39.8907H28.6811V41.5797H31.2078V42.3721H28.6811V44.1093H31.6398V44.9518H27.7617V39.0482Z" fill="#A51B23"/>
<path d="M37.1591 43.6311H34.8555L34.3887 44.9518H33.4141L35.6234 39.0482H36.3933L38.6005 44.9499H37.63L37.1591 43.6292V43.6311ZM36.897 42.8387L36.0186 40.2571H36.0022L35.1238 42.8387H36.897Z" fill="#A51B23"/>
<path d="M40.8086 39.0482H41.728V44.1093H44.6867V44.9518H40.8086V39.0482Z" fill="#A51B23"/>
<path d="M50.5996 39.0482H54.4777V39.8907H51.519V41.5797H54.0457V42.3721H51.519V44.1093H54.4777V44.9518H50.5996V39.0482Z" fill="#A51B23"/>
<path d="M56.9615 43.5212C57.4448 43.9087 58.0201 44.1035 58.6876 44.1093C59.476 44.0977 59.8773 43.8239 59.8875 43.286C59.8937 42.8464 59.6295 42.5803 59.0951 42.4916C58.8514 42.4589 58.5832 42.4222 58.2904 42.3817C57.7683 42.2988 57.3711 42.1099 57.0987 41.8188C56.8182 41.5199 56.679 41.1536 56.679 40.7256C56.679 40.2089 56.8551 39.7943 57.2073 39.4781C57.5492 39.1658 58.0324 39.0058 58.659 39C59.4125 39.0154 60.0697 39.2198 60.6267 39.6093L60.1148 40.3438C59.6602 40.0527 59.1586 39.9004 58.6098 39.8888C58.3273 39.8888 58.0898 39.9582 57.9014 40.0951C57.7048 40.2378 57.6024 40.4518 57.5963 40.7352C57.5963 40.9049 57.6639 41.0591 57.801 41.1979C57.9382 41.3387 58.1553 41.4351 58.4542 41.4891C58.6201 41.5161 58.8494 41.5469 59.1381 41.5816C59.7073 41.6568 60.1271 41.8554 60.3994 42.1774C60.6697 42.4936 60.8028 42.8599 60.8028 43.2802C60.7721 44.41 60.0616 44.9826 58.6733 44.9981C57.7744 44.9981 57.0025 44.7301 56.3555 44.1922L56.9595 43.5193L56.9615 43.5212Z" fill="#A51B23"/>
<path d="M64.3619 39.8425H62.6973V39.0482H66.946V39.8406H65.2813V44.9499H64.3619V39.8425Z" fill="#A51B23"/>
<path d="M71.5809 43.6311H69.2774L68.8106 44.9518H67.8359L70.0432 39.0482H70.8131L73.0204 44.9499H72.0498L71.5789 43.6292L71.5809 43.6311ZM71.3188 42.8387L70.4404 40.2571H70.4241L69.5456 42.8387H71.3188Z" fill="#A51B23"/>
<path d="M75.608 39.8425H73.9434V39.0482H78.1921V39.8406H76.5274V44.9499H75.608V39.8425Z" fill="#A51B23"/>
<path d="M80.3691 39.0482H84.2472V39.8907H81.2885V41.5797H83.8152V42.3721H81.2885V44.1093H84.2472V44.9518H80.3691V39.0482Z" fill="#A51B23"/>
<path d="M90.1602 39.0482H92.2855C93.1066 39.054 93.7229 39.3856 94.1345 40.045C94.2819 40.2667 94.374 40.4981 94.4129 40.741C94.4437 40.9839 94.458 41.4042 94.458 42C94.458 42.6343 94.4334 43.0778 94.3863 43.3284C94.3638 43.4557 94.331 43.5694 94.286 43.6677C94.2389 43.7641 94.1816 43.8663 94.116 43.9724C93.9379 44.25 93.6902 44.4794 93.3748 44.6607C93.0616 44.8554 92.6766 44.9518 92.2221 44.9518H90.1602V39.0482ZM91.0775 44.1093H92.1791C92.6971 44.1093 93.0718 43.9377 93.3052 43.5945C93.4076 43.4672 93.4731 43.3072 93.5018 43.1125C93.5263 42.9197 93.5386 42.5611 93.5386 42.0328C93.5386 41.5045 93.5263 41.1517 93.5018 40.9299C93.469 40.7082 93.3892 40.5289 93.2643 40.3901C93.0083 40.0469 92.6479 39.8811 92.1811 39.8907H91.0795V44.1093H91.0775Z" fill="#A51B23"/>
<path d="M97.0957 39.0482H100.974V39.8907H98.0151V41.5797H100.542V42.3721H98.0151V44.1093H100.974V44.9518H97.0957V39.0482Z" fill="#A51B23"/>
<path d="M102.754 39.0482H103.726L105.102 43.5443H105.119L106.499 39.0482H107.471L105.467 44.9499H104.752L102.754 39.0482Z" fill="#A51B23"/>
<path d="M109.672 39.0482H113.55V39.8907H110.591V41.5797H113.118V42.3721H110.591V44.1093H113.55V44.9518H109.672V39.0482Z" fill="#A51B23"/>
<path d="M115.959 39.0482H116.878V44.1093H119.837V44.9518H115.959V39.0482Z" fill="#A51B23"/>
<path d="M122.041 42C122.041 41.3136 122.061 40.8528 122.102 40.6215C122.147 40.3882 122.215 40.2012 122.307 40.0585C122.455 39.7866 122.69 39.5456 123.016 39.3335C123.335 39.1176 123.732 39.0077 124.209 39.0039C124.693 39.0096 125.094 39.1195 125.417 39.3355C125.737 39.5495 125.966 39.7924 126.107 40.0643C126.21 40.2069 126.282 40.394 126.32 40.6272C126.357 40.8586 126.374 41.3175 126.374 42.0039C126.374 42.6902 126.355 43.1356 126.32 43.3727C126.282 43.6099 126.21 43.8008 126.107 43.9434C125.966 44.2153 125.735 44.4563 125.417 44.6645C125.096 44.8805 124.693 44.9942 124.211 45.0039C123.734 44.9923 123.335 44.8805 123.018 44.6645C122.692 44.4563 122.457 44.2172 122.309 43.9434C122.264 43.8548 122.225 43.7699 122.188 43.6889C122.156 43.606 122.127 43.5 122.104 43.3727C122.064 43.1356 122.043 42.6787 122.043 42.0039L122.041 42ZM122.96 42C122.96 42.5823 122.983 42.9756 123.028 43.1799C123.067 43.3862 123.147 43.5521 123.265 43.6793C123.364 43.8008 123.491 43.8991 123.648 43.9762C123.804 44.0649 123.99 44.1093 124.207 44.1093C124.424 44.1093 124.617 44.0649 124.779 43.9762C124.932 43.901 125.053 43.8027 125.145 43.6793C125.264 43.5521 125.346 43.3862 125.391 43.1799C125.432 42.9736 125.454 42.5803 125.454 42C125.454 41.4197 125.434 41.0225 125.391 40.8123C125.346 40.6118 125.264 40.4479 125.145 40.3207C125.053 40.1992 124.93 40.097 124.779 40.0161C124.617 39.937 124.426 39.8965 124.207 39.8907C123.99 39.8965 123.804 39.9389 123.648 40.0161C123.491 40.097 123.362 40.1992 123.265 40.3207C123.147 40.4479 123.067 40.6118 123.028 40.8123C122.983 41.0225 122.96 41.4197 122.96 42Z" fill="#A51B23"/>
<path d="M129.01 39.0482H131.211C131.45 39.0482 131.68 39.0694 131.903 39.1138C132.126 39.1697 132.349 39.2873 132.579 39.4627C132.769 39.5958 132.925 39.7847 133.046 40.0296C133.17 40.2667 133.232 40.5482 133.232 40.8721C133.232 41.3098 133.074 41.7069 132.757 42.0656C132.431 42.4434 131.956 42.6382 131.332 42.6478H129.931V44.9518H129.012V39.0482H129.01ZM129.929 41.8053H131.293C131.635 41.7995 131.893 41.6973 132.065 41.4968C132.229 41.3021 132.31 41.0842 132.31 40.8451C132.31 40.6465 132.278 40.4807 132.21 40.3458C132.14 40.2243 132.042 40.1279 131.917 40.0566C131.729 39.9409 131.508 39.885 131.258 39.8888H129.927V41.8053H129.929Z" fill="#A51B23"/>
<path d="M135.619 39.0482H136.485L138.226 42.8946L139.933 39.0482H140.804V44.9499H139.884V41.2693H139.864L138.592 44.1035H137.826L136.555 41.2693H136.538V44.9499H135.619V39.0482Z" fill="#A51B23"/>
<path d="M143.682 39.0482H147.56V39.8907H144.601V41.5797H147.128V42.3721H144.601V44.1093H147.56V44.9518H143.682V39.0482Z" fill="#A51B23"/>
<path d="M149.971 39.0482H150.837L153.587 43.2436H153.603V39.0482H154.522V44.9499H153.652L150.906 40.7545H150.89V44.9499H149.971V39.0482Z" fill="#A51B23"/>
<path d="M158.417 39.8425H156.752V39.0482H161.001V39.8406H159.336V44.9499H158.417V39.8425Z" fill="#A51B23"/>
</g>
<defs>
<clipPath id="clip0_0_136">
<rect width="140" height="6" fill="white" transform="translate(21 39)"/>
</clipPath>
</defs>
</svg>
