<svg width="11" height="16" viewBox="0 0 11 16" fill="none" xmlns="http://www.w3.org/2000/svg">
<g id="Union">
<path fill-rule="evenodd" clip-rule="evenodd" d="M7.66564 5.51097C7.66564 6.81539 6.63603 7.87282 5.36595 7.87282C4.09586 7.87282 3.06626 6.81539 3.06626 5.51097C3.06626 4.20656 4.09586 3.14913 5.36595 3.14913C6.63603 3.14913 7.66564 4.20656 7.66564 5.51097ZM6.13251 5.51097C6.13251 5.94578 5.78931 6.29826 5.36595 6.29826C4.94259 6.29826 4.59939 5.94578 4.59939 5.51097C4.59939 5.07617 4.94259 4.72369 5.36595 4.72369C5.78931 4.72369 6.13251 5.07617 6.13251 5.51097Z" fill="#322D2D"/>
<path fill-rule="evenodd" clip-rule="evenodd" d="M10.7319 5.51097C10.7319 8.3697 7.90186 12.4741 6.35229 14.5072C5.76813 15.2736 5.36595 15.7456 5.36595 15.7456C5.36595 15.7456 4.96377 15.2736 4.37961 14.5072C2.83004 12.4741 0 8.3697 0 5.51097C0 2.46735 2.40242 0 5.36595 0C8.32948 0 10.7319 2.46735 10.7319 5.51097ZM9.19877 5.51097C9.19877 6.16733 8.96395 7.05906 8.49622 8.12274C8.03982 9.16065 7.41753 10.2386 6.77328 11.2311C6.28157 11.9886 5.7881 12.6795 5.36595 13.244C4.9438 12.6795 4.45033 11.9886 3.95861 11.2311C3.31437 10.2386 2.69208 9.16065 2.23568 8.12274C1.76795 7.05906 1.53313 6.16733 1.53313 5.51097C1.53313 3.33696 3.24914 1.57456 5.36595 1.57456C7.48276 1.57456 9.19877 3.33696 9.19877 5.51097Z" fill="#322D2D"/>
</g>
</svg>
