<svg xmlns="http://www.w3.org/2000/svg" width="325.782" height="1442"><path d="M0 1278.809a163.038 163.038 0 0180.831-140.8V957.8a253.193 253.193 0 00162.151.677V1136.8a163.1 163.1 0 0182.8 142.013c0 90.127-72.921 163.187-162.882 163.187S0 1368.94 0 1278.809zm100.618 0a62.281 62.281 0 1062.28-62.4 62.339 62.339 0 00-62.28 62.4zM0 721c0-90.132 72.922-163.191 162.884-163.191S325.768 630.868 325.768 721s-72.922 163.206-162.884 163.206S0 811.132 0 721zm80.831-417.005A163.038 163.038 0 010 163.192C0 73.06 72.936 0 162.9 0s162.882 73.06 162.882 163.192a163.1 163.1 0 01-82.8 142.013v178.319a253.191 253.191 0 00-162.151.677zm19.787-140.8a62.281 62.281 0 1062.28-62.4 62.338 62.338 0 00-62.28 62.397z"/></svg>